<svg style="position: absolute; width: 0; height: 0; overflow: hidden;" version="1.1" xmlns="http://www.w3.org/2000/svg" xmlns:xlink="http://www.w3.org/1999/xlink">
<defs>
<symbol id="bavarikon" viewBox="0 0 128 128">
<title>bavarikon</title>
<path class="path1" d="M112.906 3.622c0-1.974-1.647-3.622-3.624-3.622-30.189 0-60.376 0-90.565 0-1.974 0-3.622 1.649-3.622 3.622 0 40.252 0 80.506 0 120.755 0 1.975 1.649 3.622 3.622 3.622 30.189 0 60.376 0 90.565 0 1.066 0 1.878-0.388 2.458-0.97 0.034-0.029 0.068-0.065 0.1-0.096 0.029-0.031 0.068-0.067 0.095-0.1 0.582-0.579 0.972-1.39 0.972-2.456 0-40.25 0-80.503 0-120.755zM105.66 120.755c-27.772 0-55.547 0-83.32 0 0-37.838 0-75.674 0-113.51 27.773 0 55.547 0 83.32 0 0 37.837 0 75.672 0 113.51z"></path>
<path class="path2" d="M32.214 21.12h27.306v5.12h-27.306v-5.12z"></path>
<path class="path3" d="M68.906 20.48h27.52v25.6h-27.52v-25.6z"></path>
<path class="path4" d="M32.214 31.36h27.306v5.12h-27.306v-5.12z"></path>
<path class="path5" d="M32.214 41.6h27.306v5.12h-27.306v-5.12z"></path>
<path class="path6" d="M32.214 51.84h64.214v5.12h-64.214v-5.12z"></path>
<path class="path7" d="M32.214 64.64h64.214v5.12h-64.214v-5.12z"></path>
<path class="path8" d="M81.984 92.82h-2.79c-0.364-1.4-0.927-2.746-1.647-3.968l1.979-1.983c0.6-0.6 0.6-1.574 0-2.175l-3.258-3.26c-0.6-0.6-1.573-0.6-2.172 0l-1.989 1.979c-1.221-0.721-2.566-1.284-3.967-1.647v-2.79c0-0.849-0.667-1.536-1.518-1.536h-4.608c-0.849 0-1.518 0.687-1.518 1.536v2.79c-1.398 0.364-2.744 0.924-3.965 1.646l-1.984-1.978c-0.6-0.6-1.574-0.6-2.175 0l-3.259 3.258c-0.6 0.6-0.6 1.573 0 2.172l1.979 1.988c-0.723 1.222-1.284 2.568-1.647 3.968h-2.79c-0.849 0-1.536 0.667-1.536 1.518v4.608c0 0.849 0.687 1.518 1.536 1.518h2.79c0.364 1.4 0.924 2.746 1.647 3.968l-1.979 1.983c-0.6 0.6-0.6 1.574 0 2.175l3.258 3.259c0.6 0.602 1.573 0.602 2.172 0.001l1.988-1.979c1.221 0.721 2.568 1.284 3.965 1.647v2.792c0 0.847 0.668 1.535 1.518 1.535h4.608c0.849 0 1.518-0.687 1.518-1.535v-2.792c1.4-0.364 2.746-0.927 3.968-1.647l1.983 1.979c0.6 0.6 1.574 0.6 2.175 0l3.259-3.258c0.602-0.6 0.602-1.573 0.001-2.172l-1.979-1.989c0.721-1.221 1.284-2.566 1.647-3.967h2.79c0.849 0 1.536-0.667 1.536-1.518v-4.608c0-0.851-0.687-1.518-1.536-1.518zM64.32 104.32c-4.242 0-7.68-3.441-7.68-7.68 0-4.242 3.438-7.68 7.68-7.68 4.241 0 7.68 3.438 7.68 7.68 0 4.241-3.439 7.68-7.68 7.68z"></path>
</symbol>
<symbol id="bavobject" viewBox="0 0 128 128">
<title>bavobject</title>
<path class="path1" d="M1.455 38.566h68.674l56.55 54.53h-68.674l-56.55-54.53z"></path>
</symbol>
<symbol id="place" viewBox="0 0 128 128">
<title>place</title>
<path class="path1" d="M82.175 46.286q0-7.729-5.469-13.198t-13.198-5.469-13.198 5.469-5.469 13.198 5.469 13.198 13.198 5.469 13.198-5.469 5.469-13.198zM100.842 46.286q0 7.948-2.406 13.052l-26.542 56.438q-1.167 2.406-3.463 3.792t-4.922 1.385-4.922-1.385-3.391-3.792l-26.615-56.438q-2.406-5.104-2.406-13.052 0-15.458 10.937-26.396t26.396-10.938 26.396 10.938 10.938 26.396z"></path>
</symbol>
<symbol id="bin" viewBox="0 0 128 128">
<title>bin</title>
<path class="path1" d="M21.332 46.932h85.332v8.532h-85.332zM21.332 29.868h85.332v8.532h-85.332zM42.668 21.332h42.668v8.532h-42.668zM38.4 55.468h51.2v51.2h-51.2z"></path>
</symbol>
<symbol id="code" viewBox="0 0 128 128">
<title>code</title>
<path class="path1" d="M96.24 42.524l23.372 23.32v-3.624l-23.288 23.272 3.62 3.62 25.1-25.084-25.188-25.132-3.616 3.624z"></path>
<path class="path2" d="M27.964 38.9l-25.188 25.132 25.1 25.084 3.62-3.62-23.288-23.272v3.624l23.372-23.32-3.616-3.624z"></path>
<path class="path3" d="M49.268 101.64l33.632-75.54-4.676-2.084-34.672 77.876 4.676 2.084 1.040-2.34z"></path>
</symbol>
<symbol id="competition" viewBox="0 0 128 128">
<title>competition</title>
<path class="path1" d="M30.62 109.604l6.328-36.896-26.808-26.128 37.044-5.384 16.568-33.568 16.568 33.568 37.044 5.384-26.808 26.128 6.328 36.896-33.136-17.42zM21.148 50.156l21.304 20.768-5.028 29.324 26.336-13.844 26.336 13.844-5.028-29.324 21.304-20.768-29.444-4.28-13.168-26.68-13.168 26.68-2.664 0.388z"></path>
</symbol>
<symbol id="default" viewBox="0 0 128 128">
<title>default</title>
<path class="path1" d="M45.716 45.716h36.572v36.572h-36.572v-36.572z"></path>
<path class="path2" d="M0 45.716h36.572v36.572h-36.572v-36.572z"></path>
<path class="path3" d="M0 0h36.572v36.572h-36.572v-36.572z"></path>
<path class="path4" d="M91.428 0h36.572v36.572h-36.572v-36.572z"></path>
<path class="path5" d="M45.716 0h36.572v36.572h-36.572v-36.572z"></path>
<path class="path6" d="M0 91.428h36.572v36.572h-36.572v-36.572z"></path>
<path class="path7" d="M91.428 90.068h36.572v36.572h-36.572v-36.572z"></path>
<path class="path8" d="M45.716 90.068h36.572v36.572h-36.572v-36.572z"></path>
<path class="path9" d="M91.428 45.716h36.572v36.572h-36.572v-36.572z"></path>
</symbol>
<symbol id="embed" viewBox="0 0 128 128">
<title>embed</title>
<path class="path1" d="M28.16 45.952h88.064v-15.36h-88.064v15.36zM111.176 35.736l0.104 4.956-78.108 0.060 0.004-5.136 78 0.12zM2.56 71.552h122.88v-15.36h-122.88v15.36zM7.568 61.648l112.584-0.376-0.012 5.224-112.52-0.008-0.052-4.84zM2.816 97.152h82.176v-15.36h-82.176v15.36zM79.868 87.076l0.008 5.144-72.052-0.020 0.096-5.272 71.948 0.148zM108.060 91.288l1.804-1.808-13.044-13.080-3.624 3.616 9.5 9.372-9.54 9.58 3.624 3.62 11.284-11.296zM4.544 36.712l-1.804 1.808 13.044 13.080 3.624-3.616-9.664-9.452 9.704-9.496-3.624-3.62-11.284 11.296z"></path>
</symbol>
<symbol id="poll" viewBox="0 0 128 128">
<title>poll</title>
<path class="path1" d="M7.936 33.28h30.72v66.56h-30.72zM13.056 94.72h20.48v-56.32h-20.48zM125.576 110.080v-5.12h-122.888v5.12h122.888zM49.024 18.048h30.72v81.664h-30.72zM54.144 94.592h20.48v-71.424h-20.48zM89.856 48.64h30.72v51.2h-30.72zM94.976 53.76v40.96h20.48v-40.96z"></path>
</symbol>
<symbol id="text" viewBox="0 0 128 128">
<title>text</title>
<path class="path1" d="M79.76 23.94l23.908 23.92-63.348 63.616-23.992-0.2 0.080-23.72zM21.468 106.2l16.744 0.14 58.224-58.472-16.672-16.68-58.24 58.488zM106.292 44.84l-23.804-23.804 12.060-12.12 5.604 0.036 18.128 17.748 0.076 6.020zM89.72 21.028l16.564 16.564 6.924-6.956-0.020-1.756-15.136-14.82-1.384-0.008z"></path>
</symbol>
<symbol id="tweet" viewBox="0 0 128 128">
<title>tweet</title>
<path class="path1" d="M28.060 103.476c4.696 0.984 9.704 1.476 14.972 1.476 18.612 0 34.16-7.204 45.284-19.824 10.060-11.42 15.752-26.632 15.752-41.212 0-0.232 0-0.416-0.012-0.692-0.012-0.424-0.036-0.884-0.072-1.384-0.104-1.364-0.296-2.784-0.592-4.204-0.78-3.708-2.164-6.764-4.136-8.748-3.612-3.72-8.396-5.84-13.432-5.84-10.036 0-18.112 8.076-18.112 18.112 0 1.676 0.128 3.072 0.392 4.232l1.532 6.632-6.8-0.368c-17.444-0.948-33.436-7.832-45.588-19.324-0.048 0.524-0.072 1.060-0.072 1.608 0 6.104 3.048 11.676 8.088 15.036l14.996 10-18.012-0.62c-1.216-0.040-2.42-0.16-3.608-0.356 2.344 5.312 7.080 9.276 12.912 10.428l21.668 4.28-21.34 5.692c-0.988 0.264-2.004 0.472-3.036 0.628 3.268 3.552 7.924 5.776 12.94 5.844l14.296 0.184-11.164 8.932c-5.208 4.168-10.908 7.408-16.86 9.488zM109.188 43.92c0 30.716-23.364 66.156-66.156 66.156-13.124 0-25.464-2.888-35.704-9.452 1.836 0.264 3.676 0.392 5.512 0.392 10.896 0 21-4.724 28.876-11.024-10.108-0.132-18.772-6.956-21.656-16.144 1.444 0.264 2.888 0.396 4.332 0.396 2.1 0 4.2-0.264 6.168-0.788-10.632-2.1-18.64-11.552-18.64-23.1 3.152 1.708 6.696 2.756 10.5 2.888-6.3-4.2-10.368-11.288-10.368-19.296 0-4.332 1.18-7.876 3.152-11.288 11.552 14.044 28.616 22.84 47.908 23.888-0.392-1.708-0.524-3.544-0.524-5.38 0-12.864 10.368-23.232 23.232-23.232 6.672 0 12.692 2.868 17.020 7.308 5.172-1.060 10.084-3.012 14.488-5.6-1.692 5.332-5.316 9.896-10.108 12.788 0.008 0.020 0.016 0.040 0.020 0.060 4.668-0.536 9.084-1.84 13.236-3.66-3.124 4.688-7.028 8.732-11.448 12 0.152 1.64 0.152 2.792 0.152 3.096z"></path>
</symbol>
<symbol id="add-block" viewBox="0 0 128 128">
<title>add-block</title>
<path class="path1" d="M64 128c35.348 0 64-28.652 64-64s-28.652-64-64-64c-35.348 0-64 28.652-64 64s28.652 64 64 64v0zM64 123.344c-32.776 0-59.344-26.568-59.344-59.344s26.568-59.344 59.344-59.344c32.776 0 59.344 26.568 59.344 59.344s-26.568 59.344-59.344 59.344v0z"></path>
<path class="path2" d="M95.42 65.164c0 1.38-0.148 2.564-0.444 3.548s-1.168 1.48-2.612 1.48h-22.172v22.272c0 1.38-0.492 2.216-1.48 2.512s-2.168 0.444-3.548 0.444c-1.38 0-2.564-0.148-3.548-0.444s-1.48-1.132-1.48-2.512v-22.272h-22.172c-1.444 0-2.316-0.492-2.612-1.48s-0.444-2.168-0.444-3.548c0-1.38 0.148-2.564 0.444-3.548s1.168-1.48 2.612-1.48h22.172v-22.172c0-1.38 0.492-2.232 1.48-2.564s2.168-0.492 3.548-0.492c1.38 0 2.564 0.164 3.548 0.492s1.48 1.184 1.48 2.564v22.172h22.172c1.444 0 2.316 0.492 2.612 1.48s0.444 2.168 0.444 3.548v0 0z"></path>
</symbol>
<symbol id="back" viewBox="0 0 84 128">
<title>back</title>
<path class="path1" d="M64 124.336l20.112-20.112-40.22-40.228 40.22-40.228-20.112-20.112-60.336 60.336 60.336 60.336z"></path>
</symbol>
<symbol id="binopen" viewBox="0 0 120 128">
<title>binopen</title>
<path class="path1" d="M48.456 1.656l56.568 56.568-5.656 5.656-56.568-56.568zM68.256 10.14l28.284 28.284-5.656 5.66-28.288-28.288zM20 72h80v8h-80zM36 80h48v48h-48z"></path>
</symbol>
<symbol id="bottom" viewBox="0 0 116 128">
<title>bottom</title>
<path class="path1" d="M0 128v-11.636h116.364v11.636h-116.364z"></path>
<path class="path2" d="M52.364 116.364v-116.364h11.636v116.364h-11.636z"></path>
<path class="path3" d="M58.18 122.18l34.908-34.908h-69.82z"></path>
</symbol>
<symbol id="bump" viewBox="0 0 128 128">
<title>bump</title>
<path class="path1" d="M72.532 48h26.052l-34.132-32-34.132 32h25.148v33.332h17.068v-33.332zM21.332 89.6h85.332v17.068h-85.332z"></path>
</symbol>
<symbol id="center-align" viewBox="0 0 144 128">
<title>center-align</title>
<path class="path1" d="M0 0v14.224h142.224v-14.224h-142.224z"></path>
<path class="path2" d="M0 56.888v14.224h142.224v-14.224h-142.224z"></path>
<path class="path3" d="M0 113.776v14.224h142.224v-14.224h-142.224z"></path>
<path class="path4" d="M28.444 28.444v14.224h85.332v-14.224h-85.332z"></path>
<path class="path5" d="M28.444 85.332v14.224h85.332v-14.224h-85.332z"></path>
</symbol>
<symbol id="cross" viewBox="0 0 128 128">
<title>cross</title>
<path class="path1" d="M27.796 88.136l12.068 12.068 60.34-60.34-12.068-12.068-60.34 60.34zM39.864 27.796l-12.068 12.068 60.34 60.34 12.068-12.068-60.34-60.34z"></path>
</symbol>
<symbol id="down" viewBox="0 0 128 128">
<title>down</title>
<path class="path1" d="M0.372 25.48q0.816-1.48 2.296-1.48h122.668q1.48 0 2.296 1.48t-0.224 2.816l-61.332 74.668q-0.888 1.036-2.072 1.036-1.48 0-2.072-1.036l-61.332-74.668q-1.036-1.332-0.224-2.816z"></path>
</symbol>
<symbol id="edit" viewBox="0 0 128 128">
<title>edit</title>
<path class="path1" d="M35.14 74.364l47.168-46.68 16.756 16.768-46.856 46.788-17.068 0.14zM112.356 32.98l-8.836 8.88-17.496-17.508 8.832-8.88 4.112 0.036 13.324 13.052zM19.2 32h-8.532v85.332h85.332v-42.528l-17.068 17.096v8.364h-51.2v-51.2h8.532l17.048-17.068h-34.116z"></path>
</symbol>
<symbol id="emphasis" viewBox="0 0 128 128">
<title>emphasis</title>
<path class="path1" d="M125.576 110.080v-5.12h-122.888v5.12h122.888z"></path>
<path class="path2" d="M125.704 23.296v-5.12h-122.888v5.12h122.888z"></path>
<path class="path3" d="M120.348 66.56v-5.12h-47.112v5.12h47.112z"></path>
<path class="path4" d="M104.64 86.784v-5.12h-31.404v5.12h31.404z"></path>
<path class="path5" d="M104.64 46.080v-5.12h-31.404v5.12h31.404z"></path>
<path class="path6" d="M60.672 39.296v-5.12h-49.664v5.12h49.664z"></path>
<path class="path7" d="M32 49.664v-5.12h-20.992v5.12h20.992z"></path>
<path class="path8" d="M28.416 94.2h5.12v-49.656h-5.12v49.656z"></path>
<path class="path9" d="M38.656 94.2h5.12v-49.656h-5.12v49.656z"></path>
<path class="path10" d="M48.916 96.128v-5.12h-25.6v5.12h25.6z"></path>
<path class="path11" d="M7.936 28.928h5.12v25.6h-5.12v-25.6z"></path>
<path class="path12" d="M59.136 28.928h5.12v25.6h-5.12v-25.6z"></path>
<path class="path13" d="M64.256 49.664v-5.12h-25.6v5.12h25.6z"></path>
</symbol>
<symbol id="file" viewBox="0 0 68 128">
<title>file</title>
<path class="path1" d="M38.6 49.124c0 1.764 0 1.764 0 8.488 0 5.36 0 5.36 0 11.376 0 11.748 0 11.748 0 18.624 0 4.38-3.156 6.908-7.252 6.908-4.3 0-7.352-2.356-7.276-6.864 0.052-3.244 0.040-12.384-0.024-29.004-0.008-2.352-0.008-2.352-0.020-4.684-0.068-16.784-0.076-18.9-0.076-22.436 0-6.236 5.688-10.664 12.996-10.664 7.232 0 13.216 4.792 13.216 11.124v56.828c0 10.12-8.204 18.32-18.32 18.32s-18.32-8.204-18.32-18.32v-39.692h-5.036v39.692c0 12.9 10.46 23.36 23.36 23.36s23.36-10.46 23.36-23.36v-56.828c0-9.392-8.452-16.16-18.252-16.16-9.852 0-18.032 6.368-18.032 15.7 0 3.548 0.008 5.66 0.076 22.456 0.008 2.332 0.008 2.332 0.020 4.684 0.064 16.556 0.076 25.712 0.024 28.9-0.128 7.672 5.456 11.988 12.316 11.988 6.664 0 12.292-4.504 12.292-11.944 0-6.876 0-6.876 0-18.624 0-6.016 0-6.016 0-11.376 0-6.72 0-6.72 0-8.488h-5.036z"></path>
</symbol>
<symbol id="fmt-bold" viewBox="0 0 128 128">
<title>fmt-bold</title>
<path class="path1" d="M55.284 92.16l-4.544-14.916h-22.844l-4.544 14.916h-14.316l22.116-62.916h16.244l22.2 62.916h-14.316zM47.572 66.104c-4.2-13.516-6.564-21.156-7.092-22.928s-0.908-3.172-1.136-4.2c-0.944 3.656-3.644 12.7-8.1 27.128h16.328zM106.884 92.16l-2.528-6.516h-0.344c-2.2 2.772-4.464 4.692-6.792 5.764s-5.364 1.608-9.108 1.608c-4.6 0-8.22-1.316-10.864-3.944s-3.964-6.372-3.964-11.228c0-5.084 1.78-8.836 5.336-11.252s8.92-3.752 16.092-4.008l8.316-0.256v-2.1c0-4.856-2.484-7.284-7.456-7.284-3.828 0-8.328 1.156-13.5 3.472l-4.328-8.828c5.516-2.884 11.628-4.328 18.344-4.328 6.428 0 11.356 1.4 14.784 4.2s5.144 7.056 5.144 12.772v31.928h-9.128zM103.028 69.96l-5.056 0.172c-3.8 0.116-6.628 0.8-8.484 2.056s-2.784 3.172-2.784 5.744c0 3.684 2.116 5.528 6.344 5.528 3.028 0 5.452-0.872 7.264-2.616s2.72-4.056 2.72-6.944v-3.944z"></path>
</symbol>
<symbol id="fmt-heading" viewBox="0 0 128 128">
<title>fmt-heading</title>
<path class="path1" d="M70.864 92.16h-13.244v-27.044h-24.816v27.044h-13.284v-62.656h13.284v24.556h24.816v-24.556h13.244v62.656zM105.984 92.16h-9.932v-27.192l0.096-4.468 0.16-4.884c-1.652 1.648-2.796 2.732-3.44 3.248l-5.4 4.34-4.788-5.98 15.14-12.052h8.164v46.992z"></path>
</symbol>
<symbol id="fmt-italic" viewBox="0 0 128 128">
<title>fmt-italic</title>
<path class="path1" d="M53.344 72.232h-21.256l-10.5 19.928h-8.1l34.244-62.656h7.456l7.884 62.656h-7.284l-2.444-19.928zM52.572 65.544l-1.5-12.816c-0.684-5.116-1.1-10.116-1.244-15-1.056 2.516-2.208 5.016-3.452 7.5s-4.808 9.256-10.692 20.316h16.884zM94.616 44.332c2.628 0 4.972 0.708 7.028 2.12s3.656 3.452 4.8 6.108h0.472l2.872-7.372h5.444l-9.984 46.972h-5.7l1.116-8.956h-0.344c-5.116 6.544-10.5 9.816-16.156 9.816-3.972 0-7.084-1.416-9.344-4.244s-3.384-6.7-3.384-11.616c0-5.944 1.016-11.456 3.044-16.544s4.828-9.072 8.4-11.956c3.572-2.884 7.484-4.328 11.744-4.328v0zM86.472 87.060c2.772 0 5.528-1.32 8.272-3.964s4.972-6.084 6.684-10.328c1.716-4.244 2.572-8.492 2.572-12.752 0-2.944-0.8-5.284-2.4-7.028s-3.7-2.616-6.3-2.616c-2.972 0-5.736 1.228-8.292 3.684s-4.564 5.784-6.020 9.984c-1.456 4.2-2.184 8.628-2.184 13.284 0 3.256 0.672 5.692 2.016 7.308s3.228 2.42 5.656 2.42v0z"></path>
</symbol>
<symbol id="fmt-link" viewBox="0 0 128 128">
<title>fmt-link</title>
<path class="path1" d="M50.040 86.44l-3.84 3.932c-1.684 1.624-3.716 2.436-6.088 2.436s-4.404-0.812-6.088-2.436c-0.812-0.812-1.436-1.732-1.872-2.764s-0.656-2.14-0.656-3.324c0-1.124 0.22-2.2 0.656-3.232s1.060-1.952 1.872-2.764l14.236-14.144c1.5-1.436 3.464-2.84 5.9-4.216s4.684-1.032 6.744 1.032c0.936 0.876 2.060 1.312 3.372 1.312s2.404-0.468 3.28-1.404c0.936-0.936 1.404-2.060 1.404-3.372s-0.468-2.436-1.404-3.372c-3.436-3.372-7.508-4.776-12.224-4.216s-9.288 3.060-13.72 7.492l-14.328 14.144c-1.684 1.748-2.996 3.716-3.932 5.9s-1.404 4.464-1.404 6.836c0 2.436 0.468 4.744 1.404 6.932s2.248 4.152 3.932 5.9c1.748 1.748 3.748 3.060 5.996 3.932s4.528 1.312 6.836 1.312c2.312 0 4.572-0.436 6.792-1.312s4.2-2.184 5.948-3.932l3.932-3.932c0.936-0.876 1.404-1.968 1.404-3.28s-0.468-2.436-1.404-3.372c-0.936-0.936-2.060-1.404-3.372-1.404s-2.436 0.436-3.372 1.312v0zM93.404 31.372c-3.748-3.684-7.928-5.604-12.552-5.76s-8.648 1.452-12.084 4.824l-4.872 4.872c-0.936 0.876-1.404 1.968-1.404 3.276s0.468 2.436 1.404 3.372c0.936 0.936 2.060 1.404 3.372 1.404s2.436-0.436 3.372-1.312l4.776-4.872c1.812-1.748 3.764-2.404 5.852-1.968s3.888 1.404 5.384 2.904c0.812 0.812 1.436 1.732 1.872 2.764s0.656 2.14 0.656 3.324c0 1.124-0.22 2.2-0.656 3.232s-1.060 1.952-1.872 2.764l-15.172 15.080c-3.496 3.436-6.152 4.856-7.96 4.26s-3.060-1.264-3.748-2.012c-0.936-0.876-2.060-1.312-3.372-1.312s-2.404 0.468-3.276 1.404c-0.936 0.936-1.404 2.060-1.404 3.372s0.468 2.404 1.404 3.28c1.56 1.624 3.248 2.824 5.056 3.604s3.684 1.172 5.62 1.172c2.312 0 4.684-0.576 7.116-1.732s4.84-2.92 7.212-5.292l15.268-15.080c1.684-1.748 2.996-3.716 3.932-5.9s1.404-4.464 1.404-6.836c0-2.436-0.468-4.744-1.404-6.932s-2.248-4.152-3.932-5.9v0z"></path>
</symbol>
<symbol id="fmt-quote" viewBox="0 0 128 128">
<title>fmt-quote</title>
<path class="path1" d="M76.136 86.004l11.856-24.276h-18.064v-36.128h36.128v36.128l-11.856 24.276h-18.064zM27.872 86.004l12.136-24.276h-18.064v-36.128h36.128v36.128l-12.136 24.276h-18.064z"></path>
</symbol>
<symbol id="fmt-quote2" viewBox="0 0 128 128">
<title>fmt-quote2</title>
<path class="path1" d="M76.136 86.004l11.856-24.276h-18.064v-36.128h36.128v36.128l-11.856 24.276h-18.064zM27.872 86.004l12.136-24.276h-18.064v-36.128h36.128v36.128l-12.136 24.276h-18.064z"></path>
</symbol>
<symbol id="fmt-unlink" viewBox="0 0 128 128">
<title>fmt-unlink</title>
<path class="path1" d="M53.696 86.44l-3.84 3.932c-1.684 1.624-3.716 2.436-6.088 2.436s-4.404-0.812-6.088-2.436c-0.812-0.812-1.436-1.732-1.872-2.764s-0.656-2.14-0.656-3.324c0-1.124 0.22-2.2 0.656-3.232s1.060-1.952 1.872-2.764l14.236-14.144c1.5-1.436 3.464-2.84 5.9-4.216s4.684-1.032 6.744 1.032c0.936 0.876 2.060 1.312 3.372 1.312s2.404-0.468 3.28-1.404c0.936-0.936 1.404-2.060 1.404-3.372s-0.468-2.436-1.404-3.372c-3.436-3.372-7.508-4.776-12.224-4.216s-9.288 3.060-13.72 7.492l-14.328 14.144c-1.684 1.748-2.996 3.716-3.932 5.9s-1.404 4.464-1.404 6.836c0 2.436 0.468 4.744 1.404 6.932s2.248 4.152 3.932 5.9c1.748 1.748 3.748 3.060 5.996 3.932s4.528 1.312 6.836 1.312c2.312 0 4.572-0.436 6.792-1.312s4.2-2.184 5.948-3.932l3.932-3.932c0.936-0.876 1.404-1.968 1.404-3.28s-0.468-2.436-1.404-3.372c-0.936-0.936-2.060-1.404-3.372-1.404s-2.436 0.436-3.372 1.312v0 0zM97.060 31.372c-3.748-3.684-7.928-5.604-12.552-5.76s-8.648 1.452-12.080 4.824l-4.872 4.872c-0.936 0.876-1.404 1.968-1.404 3.276s0.468 2.436 1.404 3.372c0.936 0.936 2.060 1.404 3.372 1.404s2.436-0.436 3.372-1.312l4.776-4.872c1.812-1.748 3.764-2.404 5.852-1.968s3.888 1.404 5.384 2.904c0.812 0.812 1.436 1.732 1.872 2.764s0.656 2.14 0.656 3.324c0 1.124-0.22 2.2-0.656 3.232s-1.060 1.952-1.872 2.764l-15.172 15.080c-3.496 3.436-6.152 4.856-7.96 4.26s-3.060-1.264-3.748-2.012c-0.936-0.876-2.060-1.312-3.372-1.312s-2.404 0.468-3.276 1.404c-0.936 0.936-1.404 2.060-1.404 3.372s0.468 2.404 1.404 3.28c1.56 1.624 3.248 2.824 5.056 3.604s3.684 1.172 5.62 1.172c2.312 0 4.684-0.576 7.116-1.732s4.84-2.92 7.212-5.292l15.268-15.080c1.684-1.748 2.996-3.716 3.932-5.9s1.404-4.464 1.404-6.836c0-2.436-0.468-4.744-1.404-6.932s-2.248-4.152-3.932-5.9v0 0z"></path>
<path class="path2" d="M27.428 69.484h78.628v-10.972h-84.116v10.972h5.484z"></path>
</symbol>
<symbol id="game" viewBox="0 0 128 128">
<title>game</title>
<path class="path1" d="M109.32 82.368c-2.896 17.324-17.96 30.528-36.104 30.528-20.22 0-36.608-16.392-36.608-36.608 0-2.184 0.192-4.32 0.556-6.4h-33.068v-30.208h39.748l5.308 5.308 5.308-5.308h21.316v0.088c15.6 1.076 28.512 11.928 32.652 26.476 1.74-1.404 3.964-2.244 6.388-2.244 5.584 0 10.112 4.468 10.112 9.984s-4.528 9.984-10.112 9.984c-2.024 0-3.912-0.588-5.496-1.6v0zM109.824 73.984c0-2.672 2.22-4.864 4.992-4.864s4.992 2.192 4.992 4.864c0 2.672-2.22 4.864-4.992 4.864s-4.992-2.192-4.992-4.864zM41.72 44.8h-32.504v19.968h34.684c-1.404 3.568-2.172 7.452-2.172 11.52 0 17.392 14.096 31.488 31.488 31.488s31.488-14.096 31.488-31.488c0-17.132-13.684-31.072-30.72-31.48v-0.008h-17.4l-7.432 7.432-7.432-7.432z"></path>
</symbol>
<symbol id="heading" viewBox="0 0 128 128">
<title>heading</title>
<path class="path1" d="M50.932 23.168v-5.12h-35.552v5.12h35.552zM25.472 107.396h5.12v-87.044h-5.12v87.044zM35.712 58.984h56.32v-38.888h-5.12v33.768h-46.080v-33.548h-5.12v38.672zM40.832 68.992h46.080v38.888h5.12v-44.008h-56.32v43.76h5.12v-38.64zM97.152 106.624h5.12v-86.272h-5.12v86.272zM50.932 109.952v-5.12h-35.552v5.12h35.552zM112.628 23.168v-5.12h-35.552v5.12h35.552zM112.628 109.952v-5.12h-35.552v5.12h35.552z"></path>
</symbol>
<symbol id="iFrame" viewBox="0 0 128 128">
<title>iFrame</title>
<path class="path1" d="M28.032 63.872c0-5.656 4.584-10.24 10.24-10.24s10.24 4.584 10.24 10.24c0 5.656-4.584 10.24-10.24 10.24s-10.24-4.584-10.24-10.24zM43.392 63.872c0-2.828-2.292-5.12-5.12-5.12s-5.12 2.292-5.12 5.12c0 2.828 2.292 5.12 5.12 5.12s5.12-2.292 5.12-5.12zM53.632 63.872c0-5.656 4.584-10.24 10.24-10.24s10.24 4.584 10.24 10.24c0 5.656-4.584 10.24-10.24 10.24s-10.24-4.584-10.24-10.24zM68.992 63.872c0-2.828-2.292-5.12-5.12-5.12s-5.12 2.292-5.12 5.12c0 2.828 2.292 5.12 5.12 5.12s5.12-2.292 5.12-5.12zM79.232 63.872c0-5.656 4.584-10.24 10.24-10.24s10.24 4.584 10.24 10.24c0 5.656-4.584 10.24-10.24 10.24s-10.24-4.584-10.24-10.24zM94.592 63.872c0-2.828-2.292-5.12-5.12-5.12s-5.12 2.292-5.12 5.12c0 2.828 2.292 5.12 5.12 5.12s5.12-2.292 5.12-5.12zM118.408 64.084l-39.188 39.092 3.608 3.632 42.964-42.724-43.12-42.808-3.608 3.632 39.34 39.176zM4.060 62.272l-1.828 1.816 42.968 42.724 3.612-3.632-39.32-39.092 39.468-39.176-3.608-3.632-41.292 40.992z"></path>
</symbol>
<symbol id="instagram" viewBox="0 0 128 128">
<title>instagram</title>
<path class="path1" d="M84.224 44.288h15.872v-15.872h-15.872v15.872zM94.976 33.536v5.632h-5.632v-5.632h5.632z"></path>
<path class="path2" d="M23.040 61.44v-38.4h81.92v38.656h-18.064c-1.272-11.38-10.924-20.224-22.64-20.224-11.628 0-21.224 8.712-22.612 19.968h-18.604zM23.040 66.56v38.4h81.92v-38.144h-18.064c-1.272 11.38-10.924 20.224-22.64 20.224-11.804 0-21.512-8.98-22.668-20.48h-18.548zM17.92 110.080h92.16v-92.16h-92.16v92.16zM46.592 64.256c0-9.756 7.908-17.664 17.664-17.664s17.664 7.908 17.664 17.664c0 9.756-7.908 17.664-17.664 17.664s-17.664-7.908-17.664-17.664z"></path>
</symbol>
<symbol id="left-align" viewBox="0 0 144 128">
<title>left-align</title>
<path class="path1" d="M0 0v14.224h142.224v-14.224h-142.224z"></path>
<path class="path2" d="M0 56.888v14.224h142.224v-14.224h-142.224z"></path>
<path class="path3" d="M0 113.776v14.224h142.224v-14.224h-142.224z"></path>
<path class="path4" d="M0 28.444v14.224h85.332v-14.224h-85.332z"></path>
<path class="path5" d="M0 85.332v14.224h85.332v-14.224h-85.332z"></path>
</symbol>
<symbol id="link" viewBox="0 0 128 128">
<title>link</title>
<path class="path1" d="M119.176 9.332l-0.504-0.504c-11.768-11.768-31.024-11.768-42.792 0l-27.264 27.268c-11.768 11.768-11.768 31.024 0 42.788l0.504 0.504c0.98 0.98 2.020 1.864 3.092 2.684l9.98-9.98c-1.164-0.688-2.264-1.508-3.264-2.508l-0.504-0.504c-6.388-6.388-6.388-16.784 0-23.172l27.264-27.264c6.388-6.388 16.784-6.388 23.172 0l0.504 0.504c6.388 6.388 6.388 16.788 0 23.172l-12.336 12.336c2.14 5.288 3.156 10.924 3.068 16.548l19.076-19.076c11.768-11.768 11.768-31.024 0-42.788zM78.88 48.616c-0.98-0.98-2.020-1.864-3.092-2.68l-9.98 9.98c1.164 0.688 2.264 1.508 3.264 2.508l0.504 0.504c6.388 6.388 6.388 16.784 0 23.172l-27.268 27.268c-6.388 6.388-16.784 6.388-23.172 0l-0.504-0.504c-6.388-6.392-6.388-16.784 0-23.172l12.336-12.336c-2.14-5.288-3.156-10.924-3.068-16.548l-19.076 19.076c-11.768 11.768-11.768 31.024 0 42.792l0.504 0.504c11.768 11.768 31.024 11.768 42.792 0l27.264-27.264c11.768-11.768 11.768-31.024 0-42.792l-0.504-0.504z"></path>
</symbol>
<symbol id="list" viewBox="0 0 128 128">
<title>list</title>
<path class="path1" d="M17.92 30.72v15.36h-15.36v-15.36zM7.68 35.84v5.12h5.12v-5.12zM17.92 56.32v15.36h-15.36v-15.36zM7.68 61.44v5.12h5.12v-5.12zM17.92 81.92v15.36h-15.36v-15.36zM7.68 92.16h5.12v-5.12h-5.12zM104.96 30.72v15.36h-76.8v-15.36zM33.28 40.96h66.56v-5.12h-66.56zM125.44 56.32v15.36h-97.28v-15.36zM33.28 61.44v5.12h87.040v-5.12zM89.6 81.92v15.36h-61.44v-15.36zM33.28 87.040v5.12h51.2v-5.12z"></path>
</symbol>
<symbol id="middle" viewBox="0 0 100 128">
<title>middle</title>
<path class="path1" d="M0 59.076v9.848h98.46v-9.848h-98.46z"></path>
<path class="path2" d="M44.308 0v128h9.848v-128h-9.848z"></path>
<path class="path3" d="M49.232 64l29.54-29.54h-59.076z"></path>
<path class="path4" d="M49.232 64l29.54 29.54h-59.076z"></path>
</symbol>
<symbol id="minus" viewBox="0 0 144 128">
<title>minus</title>
<path class="path1" d="M0 49.776v28.444h142.224v-28.444h-142.224z"></path>
</symbol>
<symbol id="move-up-down" viewBox="0 0 128 128">
<title>move-up-down</title>
<path class="path1" d="M0 76.404l34.852-34.856 34.852 34.856-10.044 10.044-24.808-24.816-24.808 24.816-10.044-10.044zM58.284 51.6l10.048-10.052 24.804 24.812 24.812-24.812 10.056 10.052-34.864 34.844-34.856-34.844z"></path>
</symbol>
<symbol id="next" viewBox="0 0 84 128">
<title>next</title>
<path class="path1" d="M23.772 3.664l-20.112 20.112 40.22 40.228-40.22 40.228 20.112 20.112 60.336-60.336-60.336-60.336z"></path>
</symbol>
<symbol id="ordered-list" viewBox="0 0 128 128">
<title>ordered-list</title>
<path class="path1" d="M103.777 30.965v15.36h-76.8v-15.36zM32.097 41.205h66.56v-5.12h-66.56zM124.257 56.565v15.36h-97.28v-15.36zM32.097 61.685v5.12h87.040v-5.12zM88.417 82.165v15.36h-61.44v-15.36zM32.097 87.285v5.12h51.2v-5.12z"></path>
<path class="path2" d="M14.966 45.559h-4.225v-11.566c0-0.237 0-0.52 0-0.848 0.009-0.337 0.018-0.684 0.027-1.039 0.018-0.365 0.032-0.729 0.041-1.094 0.018-0.365 0.032-0.697 0.041-0.998-0.046 0.055-0.123 0.137-0.232 0.246s-0.232 0.232-0.369 0.369c-0.137 0.128-0.278 0.26-0.424 0.396s-0.287 0.26-0.424 0.369l-2.297 1.846-2.051-2.543 6.439-5.127h3.473v19.988z"></path>
<path class="path3" d="M18.279 71.593h-13.412v-2.939l4.703-5.072c0.592-0.638 1.13-1.226 1.613-1.764s0.898-1.062 1.244-1.572c0.346-0.51 0.615-1.030 0.807-1.559s0.287-1.098 0.287-1.709c0-0.675-0.205-1.199-0.615-1.572-0.401-0.374-0.943-0.56-1.627-0.56-0.72 0-1.413 0.178-2.078 0.533s-1.363 0.861-2.092 1.518l-2.297-2.721c0.41-0.374 0.838-0.729 1.285-1.066 0.447-0.346 0.939-0.652 1.476-0.916s1.13-0.474 1.777-0.629c0.647-0.164 1.372-0.246 2.174-0.246 0.957 0 1.814 0.132 2.57 0.397 0.766 0.264 1.417 0.643 1.955 1.135 0.538 0.483 0.948 1.071 1.23 1.764 0.292 0.693 0.438 1.472 0.438 2.338 0 0.784-0.137 1.536-0.41 2.256-0.273 0.711-0.647 1.413-1.121 2.105-0.474 0.684-1.025 1.367-1.654 2.051-0.62 0.674-1.285 1.363-1.996 2.064l-2.406 2.42v0.191h8.149v3.555z"></path>
<path class="path4" d="M18.041 81.567c0 0.693-0.114 1.317-0.342 1.873-0.219 0.547-0.524 1.030-0.916 1.449-0.383 0.41-0.838 0.757-1.367 1.039-0.52 0.273-1.085 0.483-1.695 0.629v0.082c1.613 0.201 2.835 0.693 3.664 1.477 0.829 0.775 1.244 1.823 1.244 3.144 0 0.875-0.16 1.686-0.479 2.434-0.31 0.738-0.793 1.381-1.449 1.928-0.647 0.547-1.467 0.975-2.461 1.285-0.984 0.301-2.146 0.451-3.486 0.451-1.075 0-2.087-0.091-3.035-0.273-0.948-0.173-1.832-0.442-2.652-0.807v-3.596c0.41 0.219 0.843 0.41 1.299 0.574s0.912 0.305 1.367 0.424c0.456 0.109 0.902 0.191 1.34 0.246 0.447 0.055 0.866 0.082 1.258 0.082 0.784 0 1.435-0.073 1.955-0.219s0.934-0.351 1.244-0.615c0.31-0.264 0.529-0.579 0.656-0.943 0.137-0.374 0.205-0.779 0.205-1.217 0-0.41-0.087-0.779-0.26-1.107-0.164-0.337-0.438-0.62-0.82-0.848-0.374-0.237-0.866-0.419-1.477-0.547s-1.363-0.191-2.256-0.191h-1.422v-2.967h1.395c0.838 0 1.536-0.073 2.092-0.219 0.556-0.155 0.998-0.36 1.326-0.615 0.337-0.264 0.574-0.57 0.711-0.916s0.205-0.716 0.205-1.107c0-0.711-0.223-1.267-0.67-1.668-0.438-0.401-1.135-0.602-2.092-0.602-0.438 0-0.848 0.046-1.23 0.137-0.374 0.082-0.725 0.192-1.053 0.328-0.319 0.128-0.615 0.273-0.889 0.438-0.264 0.155-0.506 0.31-0.725 0.465l-2.133-2.816c0.383-0.282 0.798-0.542 1.244-0.779 0.456-0.237 0.948-0.442 1.476-0.615 0.529-0.182 1.098-0.323 1.709-0.424s1.262-0.15 1.955-0.15c0.984 0 1.878 0.109 2.68 0.328 0.811 0.21 1.504 0.519 2.078 0.93 0.574 0.401 1.016 0.898 1.326 1.49 0.319 0.583 0.479 1.253 0.479 2.010z"></path>
</symbol>
<symbol id="plus" viewBox="0 0 128 128">
<title>plus</title>
<path class="path1" d="M51.2 128h25.6v-128h-25.6v128z"></path>
<path class="path2" d="M0 51.2v25.6h128v-25.6h-128z"></path>
</symbol>
<symbol id="publish" viewBox="0 0 128 128">
<title>publish</title>
<path class="path1" d="M110.932 72.532l-34.132 34.132v-25.6h-42.668v-17.068h42.668v-25.6zM57.584 38.392l-0.008-6.392h-55.444v81.068h55.468v-23.396h-12.8l0.116 10.572-29.204-0.044-0.636-55.152 29.712-0.256 0.012 10.888 12.8-0.012-0.016-17.276z"></path>
</symbol>
<symbol id="quote" viewBox="0 0 128 128">
<title>quote</title>
<path class="path1" d="M12.68 56.456l30.976-30.852 20.288 0.048-30.78 30.672h25.6v46.080h-46.080zM17.8 58.492v38.788h35.84v-35.84h-32.872l30.808-30.7-5.816-0.012zM63.88 56.456l30.976-30.852 20.288 0.048-30.78 30.672h25.6v46.080h-46.080zM69 58.492v38.788h35.84v-35.84h-32.872l30.808-30.7-5.816-0.012z"></path>
</symbol>
<symbol id="republish" viewBox="0 0 128 128">
<title>republish</title>
<path class="path1" d="M110.932 72.532l-34.132 34.132v-25.6h-42.668v-17.068h42.668v-25.6l25.6 25.6zM128 72.532l-34.132 34.132h-8.532l34.132-34.132-34.132-34.132h8.532zM57.584 38.392l-0.008-6.392h-55.444v81.068h55.468v-23.396h-12.8l0.116 10.572-29.204-0.044-0.636-55.152 29.712-0.256 0.012 10.888 12.8-0.012-0.016-17.276z"></path>
</symbol>
<symbol id="right-align" viewBox="0 0 144 128">
<title>right-align</title>
<path class="path1" d="M142.224 0v14.224h-142.224v-14.224h142.224z"></path>
<path class="path2" d="M142.224 56.888v14.224h-142.224v-14.224h142.224z"></path>
<path class="path3" d="M142.224 113.776v14.224h-142.224v-14.224h142.224z"></path>
<path class="path4" d="M142.224 28.444v14.224h-85.332v-14.224h85.332z"></path>
<path class="path5" d="M142.224 85.332v14.224h-85.332v-14.224h85.332z"></path>
</symbol>
<symbol id="rotate" viewBox="0 0 92 128">
<title>rotate</title>
<path class="path1" d="M4.572 36.572l36.572-36.572v73.144z"></path>
<path class="path2" d="M41.144 27.428c27.772 0 50.284 22.512 50.284 50.284s-22.512 50.284-50.284 50.284c-14.584 0-27.72-6.208-36.904-16.128l13.42-12.42c5.844 6.312 14.204 10.264 23.484 10.264 17.672 0 32-14.328 32-32s-14.328-32-32-32v-18.284z"></path>
</symbol>
<symbol id="search" viewBox="0 0 128 128">
<title>search</title>
<path class="path1" d="M0 117.332q0-4.444 3.112-7.556l36.296-36.148q-7.408-11.556-7.408-25.628 0-19.852 14.072-33.928t33.928-14.072 33.928 14.072 14.072 33.928-14.072 33.928-33.928 14.072q-14.072 0-25.628-7.408l-36.148 36.296q-3.112 3.112-7.556 3.112t-7.556-3.112-3.112-7.556zM48 48q0 13.184 9.408 22.592t22.592 9.408 22.592-9.408 9.408-22.592-9.408-22.592-22.592-9.408-22.592 9.408-9.408 22.592z"></path>
</symbol>
<symbol id="small-tick" viewBox="0 0 128 128">
<title>small-tick</title>
<path class="path1" d="M46.9 80.088l-19.468-20.636-12.068 12.068 31.436 31.436 65.836-65.836-12.068-12.068-53.668 55.040z"></path>
</symbol>
<symbol id="table" viewBox="0 0 176 128">
<title>table</title>
<path class="path1" d="M170.736 0v128h-170.736v-128h170.736zM7.112 120.888h156.508v-113.776h-156.508v113.776z"></path>
<path class="path2" d="M163.624 128h7.116v-85.332h-170.736v85.332h7.112v-78.224h156.508v78.224z"></path>
<path class="path3" d="M170.736 7.112v-7.112h-128.072v128h128.072v-7.112h-120.956v-113.776h120.956z"></path>
</symbol>
<symbol id="tick" viewBox="0 0 152 128">
<title>tick</title>
<path class="path1" d="M51.152 88.132l-29.204-30.96-18.1 18.1 47.152 47.152 98.756-98.756-18.1-18.1-80.5 82.56z"></path>
</symbol>
<symbol id="top" viewBox="0 0 116 128">
<title>top</title>
<path class="path1" d="M0 0v11.636h116.364v-11.636h-116.364z"></path>
<path class="path2" d="M52.364 11.636v116.364h11.636v-116.364h-11.636z"></path>
<path class="path3" d="M58.18 5.82l34.908 34.908h-69.82z"></path>
</symbol>
<symbol id="person" viewBox="0 0 128 128">
<title>person</title>
<path class="path1" d="M106.668 106.668c-30.596 0.248-61.088 0.248-85.332 0 0-14.448 14.66-26.5 34.132-29.268v-7.148c-5.1-2.952-8.532-8.468-8.532-14.784 0-0.376 0.012-0.752 0.036-1.12-2.572-1.472-4.304-4.24-4.304-7.412s1.732-5.944 4.304-7.412c-0.024-0.368-0.036-0.744-0.036-1.12 0-9.424 7.64-17.068 17.068-17.068s17.068 7.64 17.068 17.068c0 0.376-0.012 0.752-0.036 1.12 2.568 1.472 4.304 4.24 4.304 7.412s-1.732 5.944-4.304 7.412c0.024 0.368 0.036 0.744 0.036 1.12 0 6.316-3.432 11.832-8.532 14.784v7.148c19.476 2.768 34.132 14.82 34.132 29.268z"></path>
</symbol>
<symbol id="video" viewBox="0 0 128 128">
<title>video</title>
<path class="path1" d="M125.44 17.92v92.16h-122.88v-92.16zM7.68 104.96h112.64v-81.92h-112.64zM33.28 64.256c0-16.968 13.752-30.72 30.72-30.72s30.72 13.752 30.72 30.72c0 16.968-13.752 30.72-30.72 30.72s-30.72-13.752-30.72-30.72zM89.6 64.256c0-14.14-11.46-25.6-25.6-25.6s-25.6 11.46-25.6 25.6c0 14.14 11.46 25.6 25.6 25.6s25.6-11.46 25.6-25.6zM53.76 48.896l25.6 15.232-25.6 15.232zM69.348 64.128l-10.468-6.228v12.456z"></path>
</symbol>
<symbol id="view" viewBox="0 0 128 128">
<title>view</title>
<path class="path1" d="M64 98.132c-29.868 0-55.468-34.132-55.468-34.132s25.6-34.132 55.468-34.132c29.868 0 55.468 34.132 55.468 34.132s-25.6 34.132-55.468 34.132zM64 81.068c9.424 0 17.068-7.64 17.068-17.068s-7.64-17.068-17.068-17.068c-9.424 0-17.068 7.64-17.068 17.068s7.64 17.068 17.068 17.068z"></path>
</symbol>
<symbol id="image" viewBox="0 0 80 80">
<title>image</title>
<path class="path1" d="M74.991 10c0.003 0.003 0.006 0.006 0.009 0.009v59.982c-0.003 0.003-0.006 0.006-0.009 0.009h-69.982c-0.003-0.003-0.006-0.006-0.009-0.009v-59.982c0.003-0.003 0.006-0.006 0.009-0.009h69.982zM75 5h-70c-2.75 0-5 2.25-5 5v60c0 2.75 2.25 5 5 5h70c2.75 0 5-2.25 5-5v-60c0-2.75-2.25-5-5-5v0z"></path>
<path class="path2" d="M65 22.5c0 4.142-3.358 7.5-7.5 7.5s-7.5-3.358-7.5-7.5 3.358-7.5 7.5-7.5 7.5 3.358 7.5 7.5z"></path>
<path class="path3" d="M70 65h-60v-10l17.5-30 20 25h5l17.5-15z"></path>
</symbol>
<symbol id="images" viewBox="0 0 90 80">
<title>images</title>
<path class="path1" d="M85 10h-5v-5c0-2.75-2.25-5-5-5h-70c-2.75 0-5 2.25-5 5v60c0 2.75 2.25 5 5 5h5v5c0 2.75 2.25 5 5 5h70c2.75 0 5-2.25 5-5v-60c0-2.75-2.25-5-5-5zM10 15v50h-4.991c-0.003-0.003-0.006-0.006-0.009-0.009v-59.982c0.003-0.003 0.006-0.006 0.009-0.009h69.982c0.003 0.003 0.006 0.006 0.009 0.009v4.991h-60c-2.75 0-5 2.25-5 5v0zM85 74.991c-0.003 0.003-0.006 0.006-0.009 0.009h-69.982c-0.003-0.003-0.006-0.006-0.009-0.009v-59.982c0.003-0.003 0.006-0.006 0.009-0.009h69.982c0.003 0.003 0.006 0.006 0.009 0.009v59.982z"></path>
<path class="path2" d="M75 27.5c0 4.142-3.358 7.5-7.5 7.5s-7.5-3.358-7.5-7.5 3.358-7.5 7.5-7.5 7.5 3.358 7.5 7.5z"></path>
<path class="path3" d="M80 70h-60v-10l17.5-30 20 25h5l17.5-15z"></path>
</symbol>
</defs>
</svg>
