<?xml version="1.0" encoding="utf-8"?>
<!-- Generated by IcoMoon.io -->
<!DOCTYPE svg PUBLIC "-//W3C//DTD SVG 1.1//EN" "http://www.w3.org/Graphics/SVG/1.1/DTD/svg11.dtd">
<svg version="1.1" xmlns="http://www.w3.org/2000/svg" xmlns:xlink="http://www.w3.org/1999/xlink" width="32" height="32" viewBox="0 0 32 32">
<path fill="#000" d="M28.227 0.906c0-0.493-0.412-0.906-0.906-0.906-7.547 0-15.094 0-22.641 0-0.493 0-0.906 0.412-0.906 0.906 0 10.063 0 20.126 0 30.189 0 0.494 0.412 0.906 0.906 0.906 7.547 0 15.094 0 22.641 0 0.267 0 0.469-0.097 0.614-0.243 0.009-0.007 0.017-0.016 0.025-0.024s0.017-0.017 0.024-0.025c0.146-0.145 0.243-0.348 0.243-0.614 0-10.062 0-20.126 0-30.189zM26.415 30.189c-6.943 0-13.887 0-20.83 0 0-9.46 0-18.918 0-28.378 6.943 0 13.887 0 20.83 0 0 9.459 0 18.918 0 28.378z"></path>
<path fill="#000" d="M8.053 5.28h6.827v1.28h-6.827v-1.28z"></path>
<path fill="#000" d="M17.227 5.12h6.88v6.4h-6.88v-6.4z"></path>
<path fill="#000" d="M8.053 7.84h6.827v1.28h-6.827v-1.28z"></path>
<path fill="#000" d="M8.053 10.4h6.827v1.28h-6.827v-1.28z"></path>
<path fill="#000" d="M8.053 12.96h16.053v1.28h-16.053v-1.28z"></path>
<path fill="#000" d="M8.053 16.16h16.053v1.28h-16.053v-1.28z"></path>
<path fill="#000" d="M20.496 23.205h-0.698c-0.091-0.35-0.232-0.686-0.412-0.992l0.495-0.496c0.15-0.15 0.15-0.394 0-0.544l-0.814-0.815c-0.15-0.15-0.393-0.15-0.543 0l-0.497 0.495c-0.305-0.18-0.642-0.321-0.992-0.412v-0.698c0-0.212-0.167-0.384-0.38-0.384h-1.152c-0.212 0-0.38 0.172-0.38 0.384v0.698c-0.349 0.091-0.686 0.231-0.991 0.412l-0.496-0.494c-0.15-0.15-0.394-0.15-0.544 0l-0.815 0.814c-0.15 0.15-0.15 0.393 0 0.543l0.495 0.497c-0.181 0.306-0.321 0.642-0.412 0.992h-0.698c-0.212 0-0.384 0.167-0.384 0.38v1.152c0 0.212 0.172 0.38 0.384 0.38h0.698c0.091 0.35 0.231 0.686 0.412 0.992l-0.495 0.496c-0.15 0.15-0.15 0.394 0 0.544l0.814 0.815c0.15 0.15 0.393 0.15 0.543 0l0.497-0.495c0.305 0.18 0.642 0.321 0.991 0.412v0.698c0 0.212 0.167 0.384 0.38 0.384h1.152c0.212 0 0.38-0.172 0.38-0.384v-0.698c0.35-0.091 0.686-0.232 0.992-0.412l0.496 0.495c0.15 0.15 0.394 0.15 0.544 0l0.815-0.814c0.15-0.15 0.15-0.393 0-0.543l-0.495-0.497c0.18-0.305 0.321-0.642 0.412-0.992h0.698c0.212 0 0.384-0.167 0.384-0.38v-1.152c0-0.213-0.172-0.38-0.384-0.38zM16.080 26.080c-1.060 0-1.92-0.86-1.92-1.92s0.86-1.92 1.92-1.92c1.060 0 1.92 0.86 1.92 1.92s-0.86 1.92-1.92 1.92z"></path>
</svg>
