<?xml version="1.0" encoding="UTF-8" standalone="no"?>
<!-- Created with Inkscape (http://www.inkscape.org/) -->

<svg
   xmlns:dc="http://purl.org/dc/elements/1.1/"
   xmlns:cc="http://creativecommons.org/ns#"
   xmlns:rdf="http://www.w3.org/1999/02/22-rdf-syntax-ns#"
   xmlns:svg="http://www.w3.org/2000/svg"
   xmlns="http://www.w3.org/2000/svg"
   xmlns:sodipodi="http://sodipodi.sourceforge.net/DTD/sodipodi-0.dtd"
   xmlns:inkscape="http://www.inkscape.org/namespaces/inkscape"
   version="1.1"
   width="32"
   height="32"
   viewBox="0 0 32 32"
   id="svg2"
   inkscape:version="0.48.4 r9939"
   sodipodi:docname="ordered-list.svg">
  <sodipodi:namedview
     pagecolor="#ffffff"
     bordercolor="#666666"
     borderopacity="1"
     objecttolerance="10"
     gridtolerance="10"
     guidetolerance="10"
     inkscape:pageopacity="0"
     inkscape:pageshadow="2"
     inkscape:window-width="1299"
     inkscape:window-height="1028"
     id="namedview12"
     showgrid="false"
     showguides="true"
     inkscape:guide-bbox="true"
     inkscape:zoom="7.375"
     inkscape:cx="-12.135593"
     inkscape:cy="16"
     inkscape:window-x="261"
     inkscape:window-y="56"
     inkscape:window-maximized="0"
     inkscape:current-layer="text3046">
    <sodipodi:guide
       orientation="0,1"
       position="-28.338983,7.7288136"
       id="guide2989" />
    <sodipodi:guide
       orientation="0,1"
       position="-17.898305,14.101695"
       id="guide2991" />
    <sodipodi:guide
       orientation="0,1"
       position="-19.661017,20.610169"
       id="guide2993" />
    <sodipodi:guide
       orientation="1,0"
       position="4.6101695,46.508475"
       id="guide3803" />
  </sodipodi:namedview>
  <metadata
     id="metadata12">
    <rdf:RDF>
      <cc:Work
         rdf:about="">
        <dc:format>image/svg+xml</dc:format>
        <dc:type
           rdf:resource="http://purl.org/dc/dcmitype/StillImage" />
        <dc:title></dc:title>
      </cc:Work>
    </rdf:RDF>
  </metadata>
  <defs
     id="defs10" />
  <path
     d="m 25.944161,7.7412739 0,3.8400001 -19.1999997,0 0,-3.8400001 z m -17.9199997,2.5600001 16.6399997,0 0,-1.2800001 -16.6399997,0 z m 23.0399997,3.84 0,3.84 -24.3199997,0 0,-3.84 z m -23.0399997,1.28 0,1.28 21.7599997,0 0,-1.28 z m 14.0799997,5.12 0,3.84 -15.3599997,0 0,-3.84 z m -14.0799997,1.28 0,1.28 12.7999997,0 0,-1.28 z"
     id="path6" />
  <g
     style="font-size:40px;font-style:normal;font-weight:normal;line-height:125%;letter-spacing:0px;word-spacing:0px;fill:#000000;fill-opacity:1;stroke:none;font-family:Sans"
     id="text3046"
     transform="translate(0.13559322,-0.13559322)">
    <path
       d="m 3.6060398,11.525424 -1.0561524,0 0,-2.8916016 c -1.7e-6,-0.059242 -1.7e-6,-0.1298797 0,-0.211914 0.00228,-0.084307 0.00456,-0.1708952 0.00684,-0.2597656 0.00456,-0.091142 0.00797,-0.1822882 0.010254,-0.2734375 0.00456,-0.091142 0.00797,-0.1743126 0.010254,-0.2495118 -0.011395,0.013676 -0.030764,0.034184 -0.058106,0.061523 -0.027345,0.027348 -0.058107,0.058109 -0.092285,0.092285 -0.034181,0.031905 -0.0695,0.064945 -0.1059571,0.099121 -0.03646,0.034183 -0.071779,0.064945 -0.105957,0.092285 L 1.6407078,8.4458342 1.1280125,7.810092 2.7378757,6.5283537 l 0.8681641,0 0,4.9970703"
       style="font-size:7px;font-variant:normal;font-weight:bold;font-stretch:normal;font-family:Droid Sans;-inkscape-font-specification:Droid Sans Bold"
       id="path3812"
       inkscape:connector-curvature="0" />
  </g>
  <g
     style="font-size:40px;font-style:normal;font-weight:normal;line-height:125%;letter-spacing:0px;word-spacing:0px;fill:#000000;fill-opacity:1;stroke:none;font-family:Sans"
     id="text3046-0">
    <path
       d="m 4.5696132,17.898306 -3.3530273,0 0,-0.734863 1.1757812,-1.268067 c 0.1481104,-0.159503 0.2825504,-0.306475 0.4033203,-0.440918 0.1207663,-0.134437 0.2244446,-0.265459 0.3110352,-0.393066 0.086586,-0.127601 0.1538063,-0.257484 0.2016601,-0.389649 0.047849,-0.132158 0.071775,-0.274573 0.071777,-0.427246 -2.5e-6,-0.168616 -0.051272,-0.299638 -0.1538086,-0.393066 -0.1002626,-0.09342 -0.2358419,-0.140133 -0.4067383,-0.140137 -0.1800147,4e-6 -0.3531916,0.04444 -0.5195312,0.133301 -0.1663424,0.08887 -0.3406586,0.215336 -0.5229493,0.379394 L 1.202914,13.543814 c 0.1025387,-0.09342 0.2096349,-0.182287 0.3212891,-0.266602 0.1116529,-0.08658 0.2346997,-0.162918 0.3691406,-0.229004 0.134439,-0.06608 0.2825508,-0.118484 0.4443359,-0.157226 0.1617823,-0.04101 0.3429345,-0.06152 0.5434571,-0.06152 0.2392556,5e-6 0.4534481,0.03305 0.6425781,0.09912 0.1914035,0.06609 0.3543265,0.16065 0.4887695,0.283692 0.1344369,0.120773 0.2369759,0.267745 0.3076172,0.440918 0.072913,0.173181 0.1093715,0.368005 0.109375,0.584472 -3.5e-6,0.195967 -0.034183,0.383955 -0.1025391,0.563965 -0.068363,0.177737 -0.161787,0.353193 -0.2802734,0.526367 -0.1184926,0.170901 -0.2563505,0.341799 -0.4135742,0.512696 -0.1549505,0.168621 -0.3212915,0.340659 -0.4990235,0.516113 l -0.6015625,0.60498 0,0.04785 2.0371094,0 0,0.888672"
       style="font-size:7px;font-variant:normal;font-weight:bold;font-stretch:normal;font-family:Droid Sans;-inkscape-font-specification:Droid Sans Bold"
       id="path3809" />
  </g>
  <g
     style="font-size:40px;font-style:normal;font-weight:normal;line-height:125%;letter-spacing:0px;word-spacing:0px;fill:#000000;fill-opacity:1;stroke:none;font-family:Sans"
     id="text3046-8">
    <path
       d="m 4.5103821,20.391792 c -3.5e-6,0.173181 -0.028487,0.329268 -0.085449,0.468262 -0.054691,0.136722 -0.1310253,0.25749 -0.2290039,0.362305 -0.095706,0.102542 -0.2096383,0.18913 -0.3417968,0.259765 -0.1298855,0.06836 -0.2711614,0.120771 -0.4238282,0.157227 l 0,0.02051 c 0.4033176,0.05013 0.7086558,0.173179 0.9160157,0.36914 0.2073532,0.193687 0.3110315,0.455731 0.3110351,0.786133 -3.6e-6,0.218751 -0.03988,0.421551 -0.1196289,0.608399 -0.077477,0.184571 -0.1982454,0.345215 -0.3623047,0.481933 -0.1617868,0.136719 -0.3668647,0.243815 -0.6152344,0.321289 -0.2460959,0.0752 -0.536623,0.112793 -0.871582,0.112793 -0.2688815,0 -0.521811,-0.02279 -0.7587891,-0.06836 -0.2369797,-0.04329 -0.4580082,-0.110514 -0.6630859,-0.20166 l 0,-0.898926 c 0.1025388,0.05469 0.2107743,0.10254 0.324707,0.143555 0.1139317,0.04102 0.2278639,0.07634 0.3417969,0.105957 0.1139313,0.02734 0.2255849,0.04785 0.334961,0.06152 0.1116523,0.01367 0.2164699,0.02051 0.3144531,0.02051 0.1959618,10e-7 0.3588848,-0.01823 0.4887695,-0.05469 0.1298807,-0.03646 0.233559,-0.08773 0.3110352,-0.153808 0.077472,-0.06608 0.132159,-0.144693 0.1640625,-0.23584 0.034177,-0.09342 0.051267,-0.194823 0.05127,-0.304199 -2.5e-6,-0.102538 -0.02165,-0.194823 -0.064941,-0.276856 -0.041018,-0.08431 -0.1093774,-0.154946 -0.2050781,-0.211914 -0.093427,-0.05924 -0.2164734,-0.104815 -0.3691407,-0.136719 -0.152671,-0.0319 -0.3406591,-0.04785 -0.5639648,-0.04785 l -0.3554688,0 0,-0.741699 0.3486329,0 c 0.2096339,3e-6 0.3839501,-0.01823 0.5229492,-0.05469 0.1389954,-0.03873 0.2495096,-0.09 0.3315429,-0.153808 0.084308,-0.06608 0.1435524,-0.142413 0.1777344,-0.229004 0.034177,-0.08658 0.051267,-0.178871 0.05127,-0.276856 -2.4e-6,-0.17773 -0.055829,-0.316728 -0.1674805,-0.416992 -0.1093771,-0.100256 -0.2836934,-0.150386 -0.5229492,-0.150391 -0.1093766,5e-6 -0.2119156,0.0114 -0.3076172,0.03418 -0.093426,0.02051 -0.1811536,0.04786 -0.2631836,0.08203 -0.079754,0.03191 -0.1538096,0.06836 -0.222168,0.109375 -0.066082,0.03874 -0.1264656,0.07748 -0.1811523,0.116211 L 1.2735656,19.694527 c 0.095703,-0.07063 0.1993812,-0.135575 0.3110352,-0.194825 0.1139317,-0.05924 0.2369784,-0.110509 0.3691406,-0.153808 0.1321605,-0.04557 0.2745757,-0.08089 0.4272461,-0.105957 0.1526678,-0.02506 0.3155908,-0.03759 0.4887696,-0.0376 0.2460917,5e-6 0.4693987,0.02735 0.6699218,0.08203 0.2027968,0.05241 0.3759737,0.129888 0.5195313,0.232422 0.1435515,0.100265 0.2540658,0.224451 0.3315429,0.372559 0.079749,0.145837 0.1196255,0.313318 0.119629,0.502441"
       style="font-size:7px;font-variant:normal;font-weight:bold;font-stretch:normal;font-family:Droid Sans;-inkscape-font-specification:Droid Sans Bold"
       id="path3806" />
  </g>
</svg>
