<?xml version="1.0" encoding="UTF-8" standalone="no"?>
<svg
   xmlns:dc="http://purl.org/dc/elements/1.1/"
   xmlns:cc="http://creativecommons.org/ns#"
   xmlns:rdf="http://www.w3.org/1999/02/22-rdf-syntax-ns#"
   xmlns:svg="http://www.w3.org/2000/svg"
   xmlns="http://www.w3.org/2000/svg"
   xmlns:sodipodi="http://sodipodi.sourceforge.net/DTD/sodipodi-0.dtd"
   xmlns:inkscape="http://www.inkscape.org/namespaces/inkscape"
   viewBox="0 0 32 32"
   width="32"
   height="32"
   id="svg3025"
   version="1.1"
   inkscape:version="0.48.4 r9939"
   sodipodi:docname="place.svg">
  <metadata
     id="metadata3035">
    <rdf:RDF>
      <cc:Work
         rdf:about="">
        <dc:format>image/svg+xml</dc:format>
        <dc:type
           rdf:resource="http://purl.org/dc/dcmitype/StillImage" />
      </cc:Work>
    </rdf:RDF>
  </metadata>
  <defs
     id="defs3033" />
  <sodipodi:namedview
     pagecolor="#ffffff"
     bordercolor="#666666"
     borderopacity="1"
     objecttolerance="10"
     gridtolerance="10"
     guidetolerance="10"
     inkscape:pageopacity="0"
     inkscape:pageshadow="2"
     inkscape:window-width="1198"
     inkscape:window-height="950"
     id="namedview3031"
     showgrid="false"
     inkscape:zoom="8.4285714"
     inkscape:cx="-4.004925"
     inkscape:cy="34.739948"
     inkscape:window-x="0"
     inkscape:window-y="16"
     inkscape:window-maximized="0"
     inkscape:current-layer="svg3025"
     fit-margin-top="0"
     fit-margin-left="0"
     fit-margin-right="0"
     fit-margin-bottom="0" />
  <path
     style="fill:currentColor"
     inkscape:connector-curvature="0"
     id="path3029"
     d="m 20.543737,11.57156 q 0,-1.93229 -1.367188,-3.29948 -1.367188,-1.36718 -3.29948,-1.36718 -1.932292,0 -3.29948,1.36718 -1.367187,1.36719 -1.367187,3.29948 0,1.9323 1.367187,3.29948 1.367188,1.36719 3.29948,1.36719 1.932292,0 3.29948,-1.36719 1.367188,-1.36718 1.367188,-3.29948 z m 4.666667,0 q 0,1.98698 -0.601563,3.26303 l -6.635417,14.10937 q -0.291667,0.60157 -0.865886,0.94792 -0.574219,0.34635 -1.230469,0.34635 -0.65625,0 -1.230469,-0.34635 -0.574219,-0.34635 -0.847656,-0.94792 L 7.1452966,14.83459 Q 6.543734,13.55854 6.543734,11.57156 q 0,-3.86458 2.7343755,-6.59896 2.7343755,-2.73437 6.5989595,-2.73437 3.864584,0 6.59896,2.73437 2.734375,2.73438 2.734375,6.59896 z" />
</svg>
